# xmcd CD database file
#
# Track frame offsets:
#	150
#	23257
#	46927
#
# Disc length: 945 seconds
#
# Revision: 1
# Processed by: cddbd v1.5.1PL0 Copyright (c) Steve Scherf et al.
# Submitted via: CDex 1.51
#
DISCID=1303af03
DTITLE=Glass - Ying Yang
DYEAR=1900
DGENRE=Rock
TTITLE0=Wonderful World
TTITLE1=In The SIlent Hours
TTITLE2=Happy
EXTD=
EXTT0=
EXTT1=
EXTT2=
PLAYORDER=
